<svg xmlns="http://www.w3.org/2000/svg" viewBox="0 0 32 32" fill="none">
  <rect width="32" height="32" rx="8" fill="black"/>
  <g transform="scale(0.125)">
    <path d="M150.351 104.996C150.999 104.945 151.943 104.944 152.613 104.94L167.996 104.937C171.054 104.938 175.562 104.801 178.469 105.05C185.99 105.756 193.041 109.026 198.439 114.313C205.8 121.608 209.181 130.905 209.236 141.131L232.936 141.106C232.936 147.906 233.886 154.072 228.651 159.317C224.066 163.911 219.21 163.51 213.295 163.511L203.952 163.508C203.915 163.567 203.878 163.626 203.84 163.684C198.752 171.558 192.401 176.916 182.99 179.301C179.836 180.1 174.306 179.94 170.895 179.942L157.235 179.942L143.558 179.941C133.301 179.934 127.698 179.813 118.623 173.861C111.696 169.06 105.69 162.07 104.866 153.329C104.656 151.111 105.572 147.49 107.178 145.895C111.034 142.067 114.143 147.156 116.776 149.577C122.234 154.905 129.183 159.249 136.94 159.865C140.746 160.09 144.591 160.075 148.409 160.03C158.26 159.911 168.137 160.219 177.982 159.953C191.699 159.517 205.202 144.309 193.674 132.147C191.281 129.622 189.485 128.42 186.343 126.911C181.096 124.393 176.21 124.763 170.568 124.766L158.08 124.78C155.655 124.788 152.28 125.358 150.767 123.235C146.955 117.886 143.531 112.478 138.742 107.915C142.91 106.264 145.844 105.341 150.351 104.996Z" fill="#FEFEFE"/>
    <path d="M77.6801 104.994C78.1196 104.957 78.6258 104.952 79.0679 104.95C88.0316 104.903 96.9964 104.933 105.96 104.93C108.022 104.929 110.215 104.876 112.262 105.058C120.256 105.79 127.759 109.231 133.53 114.811C138.138 119.241 142.231 126.134 142.487 132.604C142.466 135.747 141.227 141.216 137.316 141.303C134.583 141.363 132.901 138.263 131.088 136.456C124.795 130.155 116.921 124.737 107.67 124.784C98.1228 124.832 88.5411 124.718 78.9867 124.788C72.0878 124.926 64.9425 128.23 60.8881 133.845C53.7387 143.747 61.0088 154.627 71.0925 158.372C75.9235 160.166 79.8298 159.877 84.7983 159.889C87.7507 159.88 92.0242 159.578 94.8119 160.393C97.0117 161.036 98.9044 165.449 100.218 167.386C103.366 172.027 107.324 176.551 111.834 179.908L90.1858 179.932C85.2553 179.936 77.0334 180.301 72.5465 179.189C63.7212 177.002 56.6587 171.097 51.9221 163.505L42.5276 163.508C36.7639 163.511 32.072 163.904 27.5684 159.548C22.012 154.175 23.1327 148.179 23.0279 141.136L46.7212 141.125C46.8066 132.247 49.5549 123.524 55.3333 116.68C60.9605 110.004 68.9863 105.807 77.6801 104.994Z" fill="#FEFEFE"/>
    <path d="M77.3073 67.0423C85.646 66.4228 92.9062 72.6846 93.5184 81.0238C94.1304 89.3631 87.8621 96.6178 79.5223 97.2224C71.1931 97.8262 63.9494 91.5677 63.3381 83.2388C62.7269 74.9101 68.979 67.661 77.3073 67.0423Z" fill="#FEFEFE"/>
    <path d="M176.558 67.0411C184.888 66.5088 192.073 72.8289 192.606 81.1584C193.141 89.488 186.823 96.674 178.493 97.2102C170.161 97.7465 162.972 91.4256 162.438 83.0933C161.903 74.761 168.226 67.5736 176.558 67.0411Z" fill="#FEFEFE"/>
  </g>
</svg>
